<svg width="300px" height="300px" version="1.1" viewBox="0 0 35.222 34.984" xmlns="http://www.w3.org/2000/svg">
 <g transform="translate(-63.738 -107.34)">
  <rect x="63.738" y="107.34" width="35.222" height="34.984" ry=".67302" style="fill-rule:evenodd;fill:#00f;stroke-width:.16838"/>
 </g>
 <g transform="translate(-63.738 -107.34)">
  <circle transform="scale(-1,1)" cx="-85.435" cy="114.02" r=".55859" style="fill-rule:evenodd;fill:#fff;stroke-width:.01409"/>
  <circle cx="68.137" cy="121.89" r=".55859" style="fill-rule:evenodd;fill:#fff;stroke-width:.01409"/>
  <circle transform="scale(-1,1)" cx="-92.414" cy="124.11" r=".55859" style="fill-rule:evenodd;fill:#fff;stroke-width:.01409"/>
  <circle cx="70.341" cy="132.17" r=".55859" style="fill-opacity:.97073;fill-rule:evenodd;fill:#fff;stroke-width:.01409"/>
  <circle cx="90.408" cy="132.81" r=".55859" style="fill-opacity:.97073;fill-rule:evenodd;fill:#fff;stroke-width:.01409"/>
  <circle cx="80.287" cy="125.55" r="10.506" style="fill-rule:evenodd;fill:#f9ff1d;stroke-width:.23164"/>
  <circle cx="80.309" cy="125.53" r="8.0522" style="fill-rule:evenodd;fill:#c73a00;stroke-width:.17753"/>
  <circle cx="80.4" cy="125.58" r="5.5742" style="fill-rule:evenodd;fill:#fcff8a;stroke-width:.1229"/>
  <path d="m80.291 121.03c-0.79686 0-1.5454 0.20624-2.1964 0.56731a1.3461 1.3461 0 0 1 0.10622 0.0703c0.62247-0.33422 1.334-0.52439 2.0902-0.5244 0.14032 0 0.279 7e-3 0.41597 0.02a1.3461 1.3461 0 0 1 0.20798-0.0895c-0.20408-0.0281-0.41216-0.0437-0.62395-0.0437zm2.1498 0.54141a1.3461 1.3461 0 0 1 0.11547 0.19541c0.27165 0.16223 0.52321 0.35405 0.7531 0.56878a0.13488 0.13488 0 0 1 0.0933-0.0688c-0.28784-0.27141-0.61078-0.50602-0.96182-0.69537zm1.1198 0.85412a0.13488 0.13488 0 0 1-0.0677 0.0918c0.0568 0.0597 0.11153 0.12154 0.16505 0.1843a0.11395 0.11395 0 0 1 0.0855-0.0733c-0.0591-0.0693-0.11974-0.13717-0.18281-0.20279zm0.30975 0.35825a0.11395 0.11395 0 0 1-0.0888 0.0692c0.0519 0.0667 0.0999 0.13654 0.14803 0.20613a0.11395 0.11395 0 0 1 0.0958-0.0589c-0.0505-0.0731-0.10048-0.14652-0.15506-0.21647zm0.2624 0.37857a0.11395 0.11395 0 0 1-0.0925 0.0647c0.42561 0.6789 0.67463 1.4794 0.67463 2.3404 0 0.46628-0.0743 0.91462-0.20834 1.3363a0.14355 0.14355 0 0 1 0.0152-1e-3 0.14355 0.14355 0 0 1 0.0929 0.0341c0.13743-0.43235 0.21391-0.89183 0.21391-1.3696 0-0.88466-0.25694-1.7077-0.69573-2.4051zm-7.8652 0.3079c-0.0584 0.11184-0.11068 0.22715-0.15987 0.34417a1.3461 1.3461 0 0 1 0.0267-1e-3 1.3461 1.3461 0 0 1 0.0936 5e-3c0.0355-0.0823 0.073-0.1638 0.11325-0.24349a1.3461 1.3461 0 0 1-0.0736-0.10437zm-0.41891 3.0039c0.0366 0.1786 0.0802 0.35474 0.13693 0.52513a1.3461 1.3461 0 0 1 0.0936-0.0759c-0.045-0.13996-0.0806-0.284-0.11175-0.42965a1.3461 1.3461 0 0 1-0.11879-0.0196zm8.572 0.67392c-0.081 0.21092-0.17564 0.41506-0.28644 0.60913a0.11395 0.11395 0 0 1 0.0955 0.0607c0.11464-0.2 0.21237-0.41046 0.29606-0.62801a0.14355 0.14355 0 0 1-4e-3 0 0.14355 0.14355 0 0 1-0.10103-0.0418zm-0.38969 0.78047c-0.29249 0.46239-0.66689 0.86781-1.105 1.1931a0.7286 0.7286 0 0 1 0.061 0.0944c0.45289-0.33524 0.83992-0.75367 1.1417-1.2312a0.11395 0.11395 0 0 1-0.0977-0.0563zm-6.3889 1.1828a1.3461 1.3461 0 0 1-0.10139 0.0637c0.76327 0.58283 1.7163 0.92963 2.7504 0.92963 0.48951 0 0.96046-0.0785 1.4022-0.22205a0.7286 0.7286 0 0 1-0.0411-0.10546c-0.42895 0.13854-0.88594 0.21426-1.3611 0.21426-0.99364 0-1.9106-0.3274-2.649-0.88002z" style="color-rendering:auto;color:#000000;dominant-baseline:auto;fill-rule:evenodd;font-feature-settings:normal;font-variant-alternates:normal;font-variant-caps:normal;font-variant-ligatures:normal;font-variant-numeric:normal;font-variant-position:normal;image-rendering:auto;isolation:auto;mix-blend-mode:normal;shape-padding:0;shape-rendering:auto;solid-color:#000000;text-decoration-color:#000000;text-decoration-line:none;text-decoration-style:solid;text-indent:0;text-orientation:mixed;text-transform:none;white-space:normal"/>
  <path d="m80.494 118.59a0.68466 0.68466 0 0 1 0.0282 0.17938c0.54377 0.03 1.0699 0.12437 1.5725 0.27315a0.31191 0.31191 0 0 1 0-2e-3 0.31191 0.31191 0 0 1 0.0501-0.16839c-0.52729-0.15635-1.0796-0.25443-1.6508-0.28293zm-1.327 0.0583c-1.6264 0.22317-3.0769 0.99769-4.1568 2.1302a0.70329 0.70329 0 0 1 0.13087 0.11661c1.0447-1.0932 2.4442-1.8432 4.0142-2.0666a0.68466 0.68466 0 0 1-2e-3 -0.0448 0.68466 0.68466 0 0 1 0.0135-0.13535zm3.5502 0.42195a0.31191 0.31191 0 0 1-0.0657 0.16433c1.1987 0.47053 2.2341 1.2654 2.9978 2.2782a0.31191 0.31191 0 0 1 0.15451-0.0868c-0.78433-1.0474-1.851-1.8697-3.0866-2.3557zm-8.5705 2.8135c-0.0659 0.10404-0.12662 0.21162-0.18713 0.31923a0.31191 0.31191 0 0 1 0.15246 0.0868c0.0579-0.103 0.11569-0.20614 0.17858-0.30579a0.70329 0.70329 0 0 1-0.14391-0.10028zm11.986 0.0179a0.31191 0.31191 0 0 1-0.13577 0.11374c0.084 0.13459 0.16454 0.27159 0.23932 0.41218a0.31191 0.31191 0 0 1 0.15615-0.0811c-0.0808-0.15193-0.16843-0.29968-0.2597-0.4448zm-12.45 0.83944c-0.0554 0.12172-0.10675 0.24571-0.15533 0.371a0.31191 0.31191 0 0 1 0.15901 0.0766c0.0486-0.12625 0.10004-0.2513 0.15573-0.37385a0.31191 0.31191 0 0 1-0.15941-0.0738zm12.971 0.14881a0.31191 0.31191 0 0 1-0.16185 0.0713c0.0632 0.14839 0.12236 0.29902 0.17531 0.45253a0.98402 0.98402 0 0 1 0.17285-0.0395c-0.0562-0.16431-0.11862-0.32572-0.18631-0.48435zm-13.323 0.80519c-0.1269 0.43738-0.21082 0.89282-0.25154 1.3605a0.31191 0.31191 0 0 1 0.11864-0.0237 0.31191 0.31191 0 0 1 0.0603 6e-3c0.0414-0.44937 0.12285-0.88698 0.24584-1.3075a0.31191 0.31191 0 0 1-0.0273 2e-3 0.31191 0.31191 0 0 1-0.14596-0.0363zm13.881 1.6067a0.98402 0.98402 0 0 1-0.17613 0.0281c5e-3 0.11181 9e-3 0.22405 9e-3 0.33718 0 1.5983-0.54357 3.0684-1.4543 4.2388a1.0631 1.0631 0 0 1 0.0999 0.15656c0.95781-1.2082 1.5313-2.7344 1.5313-4.3954 0-0.12254-4e-3 -0.24429-9e-3 -0.36529zm-14.16 0.31719c-1.1e-4 0.0162-2e-3 0.032-2e-3 0.0481 0 2.4305 1.2248 4.575 3.0903 5.8512a1.0947 1.0947 0 0 1 0.0693-0.16593c-1.8025-1.2466-2.9839-3.327-2.9839-5.6853 0-5e-3 2.91e-4 -9e-3 2.91e-4 -0.013a0.31191 0.31191 0 0 1-0.0281 2e-3 0.31191 0.31191 0 0 1-0.14637-0.0367zm11.002 5.7387c-0.37962 0.2618-0.78846 0.4834-1.2178 0.66618a0.47005 0.47005 0 0 1 0.0665 0.16266c0.46056-0.19606 0.89749-0.43674 1.3022-0.72121a1.0631 1.0631 0 0 1-0.15085-0.10763zm-5.8708 0.93729a1.0947 1.0947 0 0 1-0.0865 0.15779c0.64587 0.19384 1.3299 0.29924 2.0389 0.29924 0.65455 0 1.2881-0.0895 1.8897-0.25604a0.47005 0.47005 0 0 1-0.0506-0.17246c-0.586 0.16179-1.2015 0.25279-1.8391 0.25279-0.67831 0-1.3332-0.0993-1.9524-0.28132z" style="color-rendering:auto;color:#000000;dominant-baseline:auto;fill-rule:evenodd;font-feature-settings:normal;font-variant-alternates:normal;font-variant-caps:normal;font-variant-ligatures:normal;font-variant-numeric:normal;font-variant-position:normal;image-rendering:auto;isolation:auto;mix-blend-mode:normal;shape-padding:0;shape-rendering:auto;solid-color:#000000;text-decoration-color:#000000;text-decoration-line:none;text-decoration-style:solid;text-indent:0;text-orientation:mixed;text-transform:none;white-space:normal"/>
  <path d="m80.102 116.02c-1.4864 0-2.8903 0.34714-4.1405 0.96049a0.34612 0.34612 0 0 1 0.13754 0.19498c1.2101-0.58719 2.5668-0.91932 4.0029-0.91932 0.0122 0 0.0241 2e-3 0.0362 2e-3a0.34612 0.34612 0 0 1-0.0145-0.0991 0.34612 0.34612 0 0 1 0.0281-0.13664c-0.0168-9e-5 -0.033-2e-3 -0.0498-2e-3zm0.69582 0.029a0.34612 0.34612 0 0 1 0.0181 0.1095 0.34612 0.34612 0 0 1-0.0249 0.12713c0.16485 0.0128 0.3293 0.0274 0.49178 0.0484a0.34612 0.34612 0 0 1-4e-3 -0.0543 0.34612 0.34612 0 0 1 0.0498-0.17734c-0.17517-0.023-0.3523-0.0398-0.53022-0.0534zm1.165 0.16016a0.34612 0.34612 0 0 1 8e-3 0.0706 0.34612 0.34612 0 0 1-0.0407 0.16287c0.11329 0.023 0.22709 0.0445 0.33885 0.0715a1.2113 1.2113 0 0 1 0.0941-0.21896c-0.13189-0.0325-0.26597-0.059-0.39994-0.086zm2.6371 0.95235a1.2113 1.2113 0 0 1-0.0782 0.22529c0.57014 0.3128 1.1041 0.68314 1.593 1.1048a1.6456 1.6456 0 0 1 0.22396-0.11582c-0.53025-0.46668-1.1133-0.87455-1.7386-1.2143zm-9.1813 0.10629c-0.43982 0.25251-0.85801 0.53867-1.25 0.85598a1.0907 1.0907 0 0 1 0.17237 0.16288c0.36547-0.29367 0.75481-0.55864 1.1627-0.79491a0.34612 0.34612 0 0 1-0.085-0.22395zm-2.7674 2.396c-0.41002 0.5258-0.76679 1.0952-1.0596 1.7015a1.6456 1.6456 0 0 1 0.23073 0.0624c0.27704-0.56695 0.61128-1.1005 0.99396-1.5947a1.0907 1.0907 0 0 1-0.16514-0.16921zm15.681 1.1686a1.6456 1.6456 0 0 1-0.1597 0.19228c0.72659 1.3174 1.141 2.8313 1.141 4.4427 0 0.0244-8.99e-4 0.0485-8.99e-4 0.0728a0.34612 0.34612 0 0 1 0.12713-0.0244 0.34612 0.34612 0 0 1 0.10858 0.0176c1.5e-4 -0.022 8.99e-4 -0.0439 8.99e-4 -0.066 0-1.6846-0.44357-3.2651-1.217-4.635zm-17.628 3.6867c-0.0311 0.312-0.0475 0.62813-0.0475 0.94827 0 1.0886 0.18672 2.1331 0.5257 3.1063a0.34612 0.34612 0 0 1 0.1977-0.0624 0.34612 0.34612 0 0 1 0.0281 1e-3c-0.33366-0.9533-0.5171-1.9773-0.5171-3.0448 0-0.29681 0.0151-0.58987 0.0425-0.8795a1.6456 1.6456 0 0 1-0.22937-0.0689zm18.582 1.6522c-0.02 0.25637-0.0499 0.50993-0.09 0.76007a0.34612 0.34612 0 0 1 0.0787-0.01 0.34612 0.34612 0 0 1 0.15654 0.038c0.0401-0.25079 0.0696-0.50487 0.0896-0.76185a0.34612 0.34612 0 0 1-0.081 0.01 0.34612 0.34612 0 0 1-0.15382-0.0367zm-0.21218 1.3785c-0.1126 0.4854-0.26094 0.95698-0.44653 1.4097a3.7105 3.7105 0 0 1 0.1416 0.26829c0.22427-0.51574 0.40124-1.0562 0.53159-1.6147a0.34612 0.34612 0 0 1-0.0258 1e-3 0.34612 0.34612 0 0 1-0.20087-0.0643zm-17.441 1.5432a0.34612 0.34612 0 0 1-0.20811 0.10723c0.16473 0.38234 0.3551 0.75096 0.56688 1.1052a1.0606 1.0606 0 0 1 0.19409-0.13029c-0.20667-0.34695-0.39244-0.7077-0.55286-1.0822zm1.8169 2.7453a1.0606 1.0606 0 0 1-0.17645 0.15156c0.53555 0.56072 1.1396 1.0555 1.7984 1.4712a0.34612 0.34612 0 0 1 0.16738-0.1701c-0.65601-0.40876-1.2574-0.89719-1.7893-1.4527zm2.2815 1.7368a0.34612 0.34612 0 0 1 8.99e-4 0.0285 0.34612 0.34612 0 0 1-0.0647 0.20088c1.3226 0.70561 2.8309 1.1084 4.4346 1.1084 0.76089 0 1.4998-0.0928 2.2087-0.26283a0.34612 0.34612 0 0 1-0.0675-0.20405 0.34612 0.34612 0 0 1 5.82e-4 -0.0204c-0.68739 0.16449-1.4042 0.25333-2.1422 0.25335-1.5827 0-3.0706-0.40108-4.3712-1.1039zm7.8136 0.43659c-0.21902 0.0883-0.44309 0.16622-0.67002 0.23796a0.34612 0.34612 0 0 1 0.061 0.19635 0.34612 0.34612 0 0 1-8.99e-4 0.0344c0.30005-0.0943 0.5936-0.20321 0.87996-0.32573a3.7105 3.7105 0 0 1-0.26965-0.14296z" style="color-rendering:auto;color:#000000;dominant-baseline:auto;fill-rule:evenodd;font-feature-settings:normal;font-variant-alternates:normal;font-variant-caps:normal;font-variant-ligatures:normal;font-variant-numeric:normal;font-variant-position:normal;image-rendering:auto;isolation:auto;mix-blend-mode:normal;shape-padding:0;shape-rendering:auto;solid-color:#000000;text-decoration-color:#000000;text-decoration-line:none;text-decoration-style:solid;text-indent:0;text-orientation:mixed;text-transform:none;white-space:normal"/>
  <circle id="circlePointerTopDial" cx="74.67" cy="113.37" r="1.3503" style="fill-rule:evenodd;fill:#ff1d1d;stroke-width:.034062"/>
  <circle cx="80.207" cy="125.62" r="8.0751" style="fill:none;stroke-width:.2037;stroke:#000"/>
  <circle cx="80.269" cy="125.72" r="5.6325" style="fill:none;stroke-width:.1765;stroke:#000"/>
  <circle cx="80.46" cy="125.4" r="3.2031" style="fill-rule:evenodd;fill:#1e5837;stroke-width:.080799"/>
  <text x="68.783699" y="134.6579" style="fill:#ffffff;font-family:sans-serif;font-size:1.644px;letter-spacing:0px;line-height:1.25;stroke-width:.041099;word-spacing:0px" xml:space="preserve"><tspan x="68.783699" y="134.6579" style="fill:#ffffff;font-family:serif;stroke-width:.041099">var1</tspan></text>
  <text x="88.628456" y="134.92517" style="fill:#ffffff;font-family:sans-serif;font-size:1.644px;letter-spacing:0px;line-height:1.25;stroke-width:.041099;word-spacing:0px" xml:space="preserve"><tspan x="88.628456" y="134.92517" style="fill:#ffffff;font-family:serif;stroke-width:.041099">min</tspan></text>
  <text x="91.167549" y="126.70663" style="fill:#ffffff;font-family:sans-serif;font-size:1.644px;letter-spacing:0px;line-height:1.25;stroke-width:.041099;word-spacing:0px" xml:space="preserve"><tspan x="91.167549" y="126.70663" style="fill:#ffffff;font-family:serif;stroke-width:.041099">home</tspan><tspan x="91.167549" y="128.7616" style="fill:#ffffff;font-family:serif;stroke-width:.041099"/></text>
  <text x="83.951241" y="112.94225" style="fill:#ffffff;font-family:sans-serif;font-size:1.644px;letter-spacing:0px;line-height:1.25;stroke-width:.041099;word-spacing:0px" xml:space="preserve"><tspan x="83.951241" y="112.94225" style="fill:#ffffff;font-family:serif;stroke-width:.041099">var4</tspan></text>
  <text x="66.111031" y="124.16757" style="fill:#ffffff;font-family:sans-serif;font-size:1.644px;letter-spacing:0px;line-height:1.25;stroke-width:.041099;word-spacing:0px" xml:space="preserve"><tspan x="66.111031" y="124.16757" style="fill:#ffffff;font-family:serif;stroke-width:.041099">var2</tspan><tspan x="66.111031" y="126.22253" style="fill:#ffffff;font-family:serif;stroke-width:.041099"/></text>
  <circle transform="scale(-1,1)" cx="-74.449" cy="113.91" r=".55859" style="fill-rule:evenodd;fill:#fff;stroke-width:.01409"/>
  <text x="73.060036" y="113.39201" style="fill:#ffffff;font-family:sans-serif;font-size:1.644px;letter-spacing:0px;line-height:1.25;stroke-width:.041099;word-spacing:0px" xml:space="preserve"><tspan x="73.060036" y="113.39201" style="fill:#ffffff;font-family:serif;stroke-width:.041099">var3</tspan></text>
 </g>
</svg>
